<?xml version="1.0"?><svg width="640" height="480" xmlns="http://www.w3.org/2000/svg">
 <title>Gray Phi</title>
 <metadata id="metadata16228">image/svg+xmlGreek alphabetGreek alphabetBenjaminGreek alphabet</metadata>
 <g>
  <title>Layer 1</title>
  <g id="g16683">
   <path fill="#ffffff" id="path16685" d="m338.51416,395.254578c2.72522,33.483673 22.850403,50.225555 60.375549,50.225555l0,12.0672l-181.126663,0l0,-12.0672c37.525009,0 57.650192,-16.741882 60.375565,-50.225555c-55.344269,0 -99.577835,-15.437347 -132.700439,-46.311859c-33.122749,-30.874542 -49.788925,-68.380798 -49.998505,-112.518311c0,-47.181702 16.875755,-84.796402 50.627426,-112.844437c33.751495,-28.04805 77.775345,-43.376625 132.071518,-45.985748c-2.515656,-33.483814 -22.640839,-50.225563 -60.375565,-50.225563l0,-12.06718l181.126663,0l0,12.06718c-37.525146,0 -57.65033,16.741749 -60.375549,50.225563c59.956207,1.956841 105.342743,18.26384 136.159454,48.921005c30.816681,30.65715 46.329742,67.293442 46.53952,109.90918c0,44.137512 -16.561493,81.643768 -49.684082,112.518311c-33.122772,30.874512 -77.46106,46.311859 -133.014893,46.311859zm-60.375549,-299.722656c-35.847992,2.174377 -63.939438,13.697876 -84.274216,34.570847c-20.334915,20.872955 -30.502228,58.16153 -30.502228,111.866013c0,85.666046 38.258759,130.782135 114.776443,135.348114l0,-281.784973zm60.375549,0l0,281.784973c34.590149,-1.521942 62.367004,-12.610718 83.330841,-33.266296c20.963684,-20.655579 31.550323,-58.270447 31.76004,-112.844421c0,-85.883438 -38.363617,-131.108284 -115.090881,-135.674255z"/>
  </g>
 </g>
</svg>